<svg xmlns="http://www.w3.org/2000/svg" width="512" height="512" viewBox="0 0 512 512" fill="none">
  <rect width="512" height="512" rx="108" fill="#0A0A0C"/>
  <defs>
    <linearGradient id="grad1" x1="0%" y1="0%" x2="100%" y2="100%">
      <stop offset="0%" stop-color="#863BFF" />
      <stop offset="100%" stop-color="#47BFFF" />
    </linearGradient>
    <filter id="glow" x="-20%" y="-20%" width="140%" height="140%">
      <feGaussianBlur stdDeviation="16" result="blur" />
      <feComposite in="SourceGraphic" in2="blur" operator="over" />
    </filter>
  </defs>
  <path d="M256 64L416 128V256C416 369 345.6 443.7 256 469.3C166.4 443.7 96 369 96 256V128L256 64Z" fill="url(#grad1)" fill-opacity="0.15" stroke="url(#grad1)" stroke-width="10" filter="url(#glow)"/>
  <g transform="translate(128, 128) scale(5.333)">
    <path d="M12 28C10.8954 28 10 27.1046 10 26V22C10 20.8954 10.8954 20 12 20H14C15.1046 20 16 20.8954 16 22V26C16 27.1046 15.1046 28 14 28H12Z" fill="#863BFF"/>
    <path d="M36 28C34.8954 28 34 27.1046 34 26V22C34 20.8954 34.8954 20 36 20H38C39.1046 20 40 20.8954 40 22V26C40 27.1046 39.1046 28 38 28H36Z" fill="#863BFF"/>
    <path d="M16 23H34V25H16V23Z" fill="#47BFFF"/>
    <path d="M22 12L28 12L25 6L22 12Z" fill="#863BFF"/>
    <path d="M24 16V36" stroke="#EDE6FF" stroke-width="2.5" stroke-linecap="round"/>
    <circle cx="25" cy="24" r="5" fill="#0A0A0C" stroke="#47BFFF" stroke-width="2"/>
    <circle cx="25" cy="24" r="2" fill="#EDE6FF"/>
  </g>
</svg>
