<svg xmlns="http://www.w3.org/2000/svg" width="192" height="192" viewBox="0 0 192 192" fill="none">
  <rect width="192" height="192" rx="40" fill="#0A0A0C"/>
  <defs>
    <linearGradient id="grad1" x1="0%" y1="0%" x2="100%" y2="100%">
      <stop offset="0%" stop-color="#863BFF" />
      <stop offset="100%" stop-color="#47BFFF" />
    </linearGradient>
    <filter id="glow" x="-20%" y="-20%" width="140%" height="140%">
      <feGaussianBlur stdDeviation="6" result="blur" />
      <feComposite in="SourceGraphic" in2="blur" operator="over" />
    </filter>
  </defs>
  <path d="M96 24L156 48V96C156 138.4 129.6 166.4 96 176C62.4 166.4 36 138.4 36 96V48L96 24Z" fill="url(#grad1)" fill-opacity="0.15" stroke="url(#grad1)" stroke-width="4" filter="url(#glow)"/>
  <g transform="translate(48, 48) scale(2)">
    <path d="M12 28C10.8954 28 10 27.1046 10 26V22C10 20.8954 10.8954 20 12 20H14C15.1046 20 16 20.8954 16 22V26C16 27.1046 15.1046 28 14 28H12Z" fill="#863BFF"/>
    <path d="M36 28C34.8954 28 34 27.1046 34 26V22C34 20.8954 34.8954 20 36 20H38C39.1046 20 40 20.8954 40 22V26C40 27.1046 39.1046 28 38 28H36Z" fill="#863BFF"/>
    <path d="M16 23H34V25H16V23Z" fill="#47BFFF"/>
    <path d="M22 12L28 12L25 6L22 12Z" fill="#863BFF"/>
    <path d="M24 16V36" stroke="#EDE6FF" stroke-width="2.5" stroke-linecap="round"/>
    <circle cx="25" cy="24" r="5" fill="#0A0A0C" stroke="#47BFFF" stroke-width="2"/>
    <circle cx="25" cy="24" r="2" fill="#EDE6FF"/>
  </g>
</svg>
